# xmcd
#
# Track frame offsets:
#	150
#	14704
#	29911
#	42734
#	55821
#	72514
#	90714
#	108725
#	129178
#	147087
#
# Disc length: 2190 seconds
#
# Revision: 0
# Processed by: cddbd v1.5.2PL0 Copyright (c) Steve Scherf et al.
# Submitted via: audiograbber 1.83.01
#
DISCID=99088c0a
DTITLE=Jeanne Zano - Here I Am
DYEAR=2008
DGENRE=Country
TTITLE0=I Lost The Feeling
TTITLE1=Life's a Party
TTITLE2=Sorry Won't Bring Me Back
TTITLE3=Losing at Loving
TTITLE4=Another Word for Goodbye
TTITLE5=Here I Am
TTITLE6=Can't Get Over You
TTITLE7=Break Me Down
TTITLE8=Beautiful Accident
TTITLE9=8 Years of Life
EXTD=
EXTT0=
EXTT1=
EXTT2=
EXTT3=
EXTT4=
EXTT5=
EXTT6=
EXTT7=
EXTT8=
EXTT9=
PLAYORDER=
